<?xml version="1.0" standalone="no"?>
<!DOCTYPE svg PUBLIC "-//W3C//DTD SVG 20010904//EN"
 "http://www.w3.org/TR/2001/REC-SVG-20010904/DTD/svg10.dtd">
<svg version="1.0" xmlns="http://www.w3.org/2000/svg"
 width="896.000000pt" height="896.000000pt" viewBox="0 0 896.000000 896.000000"
 preserveAspectRatio="xMidYMid meet">
<metadata>
Created by potrace 1.11, written by Peter Selinger 2001-2013
</metadata>
<g transform="translate(0.000000,896.000000) scale(0.100000,-0.100000)"
fill="#000000" stroke="none">
<path d="M6070 7759 c-300 -302 -745 -750 -989 -997 -412 -414 -442 -447 -415
-449 16 -2 281 -4 589 -7 308 -2 578 -7 600 -10 22 -4 56 -9 75 -12 19 -3 36
-6 37 -6 7 1 132 -38 158 -49 17 -7 33 -13 37 -13 4 -1 42 -24 86 -52 78 -51
182 -159 182 -190 0 -7 4 -14 9 -14 15 0 73 -159 88 -240 2 -14 6 -36 10 -50
12 -55 10 -319 -3 -401 -30 -190 -85 -307 -194 -418 -80 -82 -239 -168 -321
-174 -10 -1 -19 -4 -19 -7 0 -4 -6 -7 -12 -7 -7 0 -39 -5 -71 -11 -32 -7 -61
-11 -65 -11 -4 1 -9 1 -12 0 -26 -10 -282 -12 -1491 -14 l-1397 -2 -483 -487
c-266 -268 -907 -913 -1424 -1434 -517 -520 -964 -969 -992 -997 l-53 -50 0
-504 0 -503 1205 0 1205 0 2 965 3 966 610 0 c336 0 885 -1 1220 -1 l610 0 85
-147 c114 -195 118 -202 189 -321 33 -57 61 -105 61 -107 0 -2 23 -40 50 -84
28 -44 50 -85 50 -91 0 -5 5 -10 10 -10 6 0 10 -4 10 -9 0 -5 34 -67 76 -138
42 -70 88 -148 102 -173 13 -25 32 -53 41 -64 9 -10 16 -21 15 -25 -1 -5 12
-29 53 -96 18 -30 115 -197 127 -219 6 -11 15 -25 19 -30 21 -29 87 -146 87
-155 0 -6 3 -11 8 -11 4 0 12 -10 18 -23 16 -31 71 -126 95 -162 10 -16 22
-38 25 -48 6 -16 83 -17 1431 -17 783 0 1422 3 1420 8 -25 47 -144 238 -149
240 -5 2 -8 8 -8 13 0 5 -16 33 -35 63 -19 30 -35 60 -35 66 0 6 -6 13 -13 16
-8 3 -20 20 -27 39 -8 19 -17 35 -22 35 -4 0 -8 4 -8 9 0 5 -22 45 -49 88 -27
43 -91 148 -142 233 -51 85 -96 157 -99 160 -7 7 -28 41 -43 70 -6 14 -31 54
-54 90 -24 36 -43 69 -43 73 0 4 -9 17 -20 29 -11 12 -20 28 -20 35 0 7 -4 13
-9 13 -5 0 -13 10 -17 22 -3 12 -19 39 -35 61 -16 22 -29 46 -29 54 0 7 -4 13
-10 13 -5 0 -10 7 -10 15 0 8 -4 15 -10 15 -5 0 -10 5 -10 11 0 6 -13 29 -28
52 -15 23 -34 54 -41 69 -8 16 -18 28 -23 28 -4 0 -8 4 -8 9 0 6 -42 78 -92
161 -51 83 -97 158 -103 168 -5 9 -31 51 -57 93 -27 42 -48 81 -48 87 0 5 -3
12 -7 14 -16 7 -61 85 -55 94 4 6 55 37 115 69 59 33 107 63 107 67 0 5 5 8
11 8 31 0 274 188 403 313 38 37 73 67 78 67 4 0 8 3 8 8 1 4 26 34 56 67 31
33 86 98 122 145 37 47 70 87 74 88 5 2 8 10 8 17 0 7 4 15 8 17 11 4 102 146
102 158 0 6 4 10 8 10 5 0 19 23 32 50 13 28 27 50 31 50 4 0 10 12 14 28 3
15 13 34 22 44 8 9 16 22 17 30 1 7 15 40 30 73 38 80 42 89 72 170 59 159
109 335 129 458 3 17 10 57 15 87 22 131 25 196 25 560 0 343 -4 447 -18 515
-3 11 -8 43 -12 70 -9 63 -69 312 -87 365 -3 8 -22 62 -43 120 -40 113 -169
390 -186 401 -6 3 -10 9 -9 13 2 9 -72 130 -82 134 -4 2 -8 8 -8 12 0 12 -101
152 -153 214 -23 27 -48 58 -56 68 -18 27 -215 224 -272 273 -87 77 -163 135
-239 185 -13 8 -35 25 -50 38 -15 12 -31 22 -35 22 -4 0 -19 9 -33 19 -63 45
-319 177 -334 173 -5 -1 -8 3 -8 10 0 6 -2 9 -6 6 -3 -3 -41 9 -85 28 -43 18
-83 34 -87 35 -14 3 -27 7 -47 15 -77 29 -357 97 -440 107 l-50 6 -545 -550z"/>
</g>
</svg>
