<svg width="32" height="38" viewBox="0 0 32 38" fill="none" xmlns="http://www.w3.org/2000/svg">
<path d="M1.0885 5.56137L8.5442 1.25684L15.9999 5.56137L15.9999 14.1705L8.5442 18.4751L1.0885 14.1705L1.0885 5.56137Z" fill="#FFDA44"/>
<path d="M23.4557 18.4752L16 14.1707L8.54425 18.4752L8.54425 27.0843L12.3902 29.3048C13.2767 29.8165 13.8228 30.7624 13.8228 31.786L13.8228 33.8879C13.8228 35.0904 14.7975 36.0652 16 36.0652C17.2025 36.0652 18.1773 35.0904 18.1773 33.8879V31.786C18.1773 30.7624 18.7234 29.8165 19.6098 29.3048L23.4558 27.0843V18.4752H23.4557Z" fill="#FFDA44"/>
<path d="M16.0001 14.1707L16.0001 36.0653C17.2026 36.0653 18.1773 35.0905 18.1773 33.888V31.786C18.1773 30.7625 18.7234 29.8166 19.6099 29.3048L23.4558 27.0844V18.4752L16.0001 14.1707Z" fill="#FFB655"/>
<path d="M16.0001 5.56137L23.4558 1.25684L30.9115 5.56137V14.1705L23.4558 18.4751L16.0001 14.1705V5.56137Z" fill="#FFDA44"/>
<path d="M16.0002 5.56137L23.456 1.25684L30.9117 5.56137V14.1705L23.456 18.4751L16.0002 14.1705V5.56137Z" fill="#FFB655"/>
<path d="M32 4.93307L23.4557 0L16 4.30453L8.54426 0L0 4.93307L0 14.7991L7.4557 19.1037L7.4557 27.7127L11.8459 30.2474C12.3939 30.5637 12.7341 31.1532 12.7341 31.7859V33.8879C12.7341 35.6886 14.1992 37.1537 16 37.1537C17.8007 37.1537 19.2658 35.6886 19.2658 33.8879V31.7859C19.2658 31.1532 19.6061 30.5637 20.154 30.2474L24.5442 27.7127V19.1037L31.9999 14.7991L31.9999 4.93307H32ZM2.17712 6.18999L8.54426 2.51392L14.9114 6.18999L14.9114 13.5421L8.54412 17.2182L2.17705 13.5422L2.17705 6.18999H2.17712ZM19.0655 28.362C17.8462 29.0658 17.0887 30.3778 17.0887 31.7859V33.8879C17.0887 34.4882 16.6004 34.9766 16 34.9766C15.3997 34.9766 14.9113 34.4882 14.9113 33.8879V31.7859C14.9113 30.3779 14.1538 29.0659 12.9346 28.362L9.6329 26.4557L9.6329 19.1037L16 15.4276L22.3672 19.1037V26.4557L19.0655 28.362ZM29.8229 13.5421L23.4558 17.2181L17.0885 13.542V6.18999L23.4557 2.51392L29.8228 6.18999V13.5421H29.8229Z" fill="#FFB655"/>
<path d="M16.0001 18.3937L12.2016 20.5868V24.9729L16.0001 27.166L19.7987 24.9729V20.5868L16.0001 18.3937Z" fill="#FFB655"/>
<path d="M23.4559 5.47986L19.6573 7.67295V12.0591L23.4559 14.2522L27.2544 12.0591V7.67295L23.4559 5.47986Z" fill="#FFB655"/>
<path d="M8.54436 5.47986L4.74579 7.67295L4.74579 12.0591L8.54436 14.2522L12.3429 12.0591V7.67295L8.54436 5.47986Z" fill="#FFB655"/>
<path d="M23.4557 5.47986L19.6572 7.67295V12.0591L23.4557 14.2522L27.2542 12.0591V7.67295L23.4557 5.47986Z" fill="#FF7C48"/>
<path d="M23.4558 0L16.0001 4.30453L16.0001 15.4275L22.3672 19.1036V26.4557L19.0655 28.362C17.8462 29.0658 17.0888 30.3778 17.0888 31.7859V33.8879C17.0888 34.4882 16.6004 34.9766 16.0001 34.9766V37.1537C17.8008 37.1537 19.2659 35.6886 19.2659 33.8879V31.7859C19.2659 31.1532 19.6062 30.5637 20.1541 30.2474L24.5443 27.7127L24.5443 19.1037L32 14.7991V4.93307L23.4558 0ZM29.823 13.5421L23.4559 17.2181L17.0886 13.542V6.18999L23.4558 2.51392L29.8229 6.18999V13.5421H29.823Z" fill="#FF7C48"/>
<path d="M19.7986 20.5868L16.0001 18.3937V27.166L19.7986 24.9729V20.5868Z" fill="#FF7C48"/>
</svg>
