<svg width="18" height="18" viewBox="0 0 18 18" fill="none" xmlns="http://www.w3.org/2000/svg">
<path d="M10.9104 4.20022C11.6586 4.34591 12.3462 4.71112 12.8852 5.2491C13.4242 5.78707 13.7901 6.47335 13.9361 7.22008L10.9104 4.20022ZM10.9104 1.14214C12.4648 1.31449 13.9143 2.00924 15.0209 3.11231C16.1275 4.21539 16.8254 5.66123 17 7.21244L10.9104 1.14214ZM16.234 13.3133V15.6069C16.2349 15.8198 16.1912 16.0306 16.1057 16.2257C16.0203 16.4207 15.8949 16.5959 15.7377 16.7398C15.5805 16.8837 15.3949 16.9933 15.1928 17.0615C14.9908 17.1298 14.7766 17.1551 14.5642 17.1359C12.2071 16.8803 9.94297 16.0764 7.95371 14.7888C6.10295 13.6151 4.53384 12.0489 3.35779 10.2017C2.06326 8.20724 1.25765 5.93645 1.00622 3.57331C0.987076 3.3619 1.01225 3.14882 1.08014 2.94765C1.14802 2.74648 1.25713 2.56161 1.40052 2.40484C1.54391 2.24806 1.71843 2.12279 1.91298 2.03703C2.10753 1.95126 2.31785 1.90686 2.53053 1.90666H4.82849C5.20022 1.90301 5.56061 2.03439 5.84247 2.27633C6.12433 2.51826 6.30843 2.85424 6.36046 3.22163C6.45745 3.95563 6.63732 4.67631 6.89665 5.36994C6.99971 5.64358 7.02201 5.94097 6.96092 6.22688C6.89983 6.51278 6.7579 6.77522 6.55195 6.98308L5.57915 7.95402C6.66958 9.86804 8.25739 11.4528 10.1751 12.5412L11.1479 11.5702C11.3561 11.3647 11.6191 11.223 11.9055 11.162C12.192 11.1011 12.4899 11.1233 12.7641 11.2262C13.4591 11.485 14.1811 11.6645 14.9165 11.7613C15.2886 11.8137 15.6284 12.0008 15.8713 12.2869C16.1143 12.5731 16.2433 12.9384 16.234 13.3133Z" stroke="#78B9EB" stroke-linecap="round" stroke-linejoin="round"/>
</svg>