<svg width="32" height="30" viewBox="0 0 32 30" fill="none" xmlns="http://www.w3.org/2000/svg">
<path d="M27.1457 7.81513L31.9956 2.97243L30.3278 1.30712L25.7951 5.8331L25.2784 5.26607C22.5363 2.23683 18.6124 0.5 14.5145 0.5C11.8287 0.5 9.19397 1.24582 6.90204 2.65572C0.947129 6.3235 -1.54432 13.7101 0.977824 20.2284C3.17255 25.8935 8.61076 29.5 14.5145 29.5C15.3996 29.5 16.3 29.4183 17.2004 29.2497C24.0761 27.9624 29.059 21.9601 29.0437 14.9719C29.0437 12.6527 28.4758 10.3438 27.4015 8.29021L27.1457 7.81513ZM12.7239 2.92646C16.8474 2.32878 20.9401 3.85107 23.6771 6.99269L24.1222 7.50352L14.4941 17.1174L8.2066 10.8393L6.53882 12.5046L13.6602 19.6205C14.1104 20.07 14.8777 20.07 15.3279 19.6205L25.437 9.53153L25.8411 10.5685C27.3094 14.3129 26.8285 18.5324 24.557 21.8528C22.2907 25.1681 18.5356 27.1451 14.4736 27.1451C10.3144 27.1451 6.48254 25.0609 4.23154 21.5719C1.97543 18.0727 1.65312 13.7255 3.3823 9.93509C5.11148 6.14471 8.60053 3.52924 12.7239 2.92646Z" fill="url(#icon-list-0_linear)"/>
<defs>
<linearGradient id="icon-list-0_linear" x1="15.9978" y1="0.5" x2="15.9978" y2="29.5" gradientUnits="userSpaceOnUse">
<stop stop-color="#6C95FF" stop-opacity="0.8"/>
<stop offset="1" stop-color="#7870DC"/>
</linearGradient>
</defs>
</svg>