<svg width="58" height="61" viewBox="0 0 58 61" fill="none" xmlns="http://www.w3.org/2000/svg">
<path d="M49.78 23.36V21.03C49.78 15.44 47.8 10.25 44.22 6.40003C40.55 2.45003 35.4899 0.280029 29.9799 0.280029H28.0499C22.5399 0.280029 17.4899 2.45003 13.8099 6.40003C10.2299 10.25 8.24994 15.45 8.24994 21.03V23.36C3.89994 23.65 0.439941 27.28 0.439941 31.7V35.35C0.439941 39.96 4.18994 43.71 8.79994 43.71H13.5099C14.3499 43.71 15.0399 43.02 15.0399 42.18V24.87C15.0399 24.03 14.3499 23.34 13.5099 23.34H11.3199V21.03C11.3199 10.94 18.5199 3.34003 28.0399 3.34003H29.97C39.51 3.34003 46.69 10.94 46.69 21.03V23.34H44.5C43.66 23.34 42.97 24.03 42.97 24.87V42.17C42.97 43.01 43.66 43.7 44.5 43.7H46.6399C46.0199 51.69 40.52 53.54 37.97 53.96C37.27 51.8 35.2399 50.25 32.8499 50.25H29.0199C26.0599 50.25 23.6499 52.66 23.6499 55.62C23.6499 58.58 26.0599 61 29.0199 61H32.8599C35.3299 61 37.4099 59.32 38.0399 57.05C39.2899 56.87 41.2699 56.42 43.2299 55.28C45.9999 53.66 49.2799 50.36 49.7099 43.7C54.0899 43.43 57.56 39.8 57.56 35.36V31.71C57.57 27.28 54.13 23.64 49.78 23.36ZM11.9999 40.63H8.81995C5.89995 40.63 3.52994 38.26 3.52994 35.34V31.69C3.52994 28.77 5.89995 26.4 8.81995 26.4H11.9999V40.63ZM32.8599 57.93H29.0199C27.7399 57.93 26.7099 56.9 26.7099 55.62C26.7099 54.34 27.7399 53.31 29.0199 53.31H32.8599C34.1399 53.31 35.1699 54.34 35.1699 55.62C35.1699 56.9 34.1399 57.93 32.8599 57.93ZM54.5099 35.34C54.5099 38.26 52.14 40.63 49.22 40.63H46.0399V26.4H49.22C52.14 26.4 54.5099 28.77 54.5099 31.69V35.34Z" fill="url(#icon-3-0_linear)"/>
<defs>
<linearGradient id="icon-3-0_linear" x1="29" y1="0.280029" x2="29" y2="61" gradientUnits="userSpaceOnUse">
<stop stop-color="#6C95FF" stop-opacity="0.8"/>
<stop offset="1" stop-color="#7870DC"/>
</linearGradient>
</defs>
</svg>