<svg width="56" height="61" viewBox="0 0 56 61" fill="none" xmlns="http://www.w3.org/2000/svg">
<path d="M53.6892 9.12002C51.7092 6.79002 49.0692 5.42001 47.2692 4.59001C42.8692 2.56001 38.1092 1.38001 32.2792 0.840015C30.7592 0.710015 29.2392 0.640015 27.7492 0.640015C22.2892 0.640015 16.9192 1.55001 11.7692 3.33001C9.2792 4.21001 6.0692 5.54002 3.3792 7.90001C1.3492 9.71001 0.359195 11.93 0.469195 14.5V14.58C0.549195 15.41 0.529188 16.26 0.509188 17.17C0.499188 17.78 0.479188 18.43 0.509188 19.07C0.569188 22.16 2.66919 24.22 5.69919 24.22H13.8792C16.8592 24.22 18.8792 22.17 18.8792 19.12V14.6C19.1392 14.52 19.3892 14.43 19.6492 14.36C20.0492 14.23 20.4192 14.1 20.7492 14.03C23.0292 13.52 25.3792 13.26 27.9092 13.26C29.2892 13.26 30.7392 13.34 32.2192 13.49C34.2292 13.72 35.7892 14.06 37.1992 14.6C37.1592 15.72 37.1592 16.82 37.1692 17.88V19.12C37.1692 22.27 39.2092 24.31 42.3592 24.31H46.3492C46.8092 24.31 47.2692 24.31 47.7192 24.32C48.1792 24.32 48.6292 24.33 49.0792 24.33C49.5892 24.33 50.0392 24.32 50.4592 24.3C53.4292 24.29 55.4692 22.26 55.5392 19.24V14.19C55.5392 12.28 54.9192 10.57 53.6892 9.12002ZM52.4792 19.19C52.4492 20.13 52.0792 21.24 50.4392 21.24H50.3892C50.0092 21.25 49.5892 21.27 49.0992 21.27C48.6492 21.27 48.2192 21.27 47.7692 21.26C47.3092 21.26 46.8392 21.25 46.3692 21.25H42.3792C40.8992 21.25 40.2492 20.59 40.2492 19.12V17.86C40.2392 16.62 40.2392 15.45 40.2992 14.24V14.15C40.2992 12.82 39.5192 12.29 38.9492 11.99C38.9092 11.98 38.8892 11.96 38.8492 11.94C37.0592 11.2 35.1392 10.74 32.5992 10.45H32.5692C30.9792 10.28 29.4192 10.21 27.9392 10.21C25.2192 10.21 22.5892 10.49 20.1192 11.04C19.6192 11.15 19.1592 11.31 18.7192 11.45C18.3192 11.58 17.9492 11.71 17.6192 11.78L17.4692 11.82C16.8692 12.02 15.8592 12.59 15.8592 14.1V19.11C15.8592 20.04 15.5292 21.15 13.9192 21.15H5.71919C4.3292 21.15 3.60919 20.42 3.58919 18.98V18.96C3.57919 18.39 3.57919 17.81 3.58919 17.2C3.59919 16.27 3.62919 15.31 3.53919 14.32C3.47919 12.67 4.05919 11.4 5.42919 10.19C7.72919 8.17001 10.5792 7.00001 12.8192 6.22001C17.6292 4.55001 22.6692 3.69001 27.7792 3.69001C29.1792 3.69001 30.6092 3.75001 32.0292 3.88001C37.4992 4.39001 41.9392 5.50001 46.0092 7.36001C48.4992 8.50001 50.1592 9.64001 51.3692 11.09C52.1192 12 52.4892 13 52.4892 14.19V19.19H52.4792Z" fill="url(#icon-5-0_linear)"/>
<path d="M28.2193 27.46C25.5993 27.46 23.4893 29.59 23.4893 32.19C23.4893 34.79 25.6193 36.92 28.2193 36.92C30.8193 36.92 32.9492 34.79 32.9492 32.19C32.9492 29.6 30.8293 27.46 28.2193 27.46ZM28.2193 33.87C27.2993 33.87 26.5493 33.12 26.5493 32.2C26.5493 31.28 27.2993 30.53 28.2193 30.53C29.1393 30.53 29.8893 31.28 29.8893 32.2C29.8993 33.12 29.1493 33.87 28.2193 33.87Z" fill="url(#icon-5-1_linear)"/>
<path d="M40.7891 27.46C38.1691 27.46 36.0591 29.59 36.0591 32.19C36.0591 34.79 38.1891 36.92 40.7891 36.92C43.3891 36.92 45.5191 34.79 45.5191 32.19C45.5291 29.6 43.4091 27.46 40.7891 27.46ZM40.7891 33.87C39.8691 33.87 39.1191 33.12 39.1191 32.2C39.1191 31.28 39.8691 30.53 40.7891 30.53C41.7091 30.53 42.4591 31.28 42.4591 32.2C42.4591 33.12 41.7091 33.87 40.7891 33.87Z" fill="url(#icon-5-2_linear)"/>
<path d="M15.6392 27.46C13.0192 27.46 10.9092 29.59 10.9092 32.19C10.9092 34.79 13.0392 36.92 15.6392 36.92C18.2392 36.92 20.3692 34.79 20.3692 32.19C20.3692 29.6 18.2492 27.46 15.6392 27.46ZM15.6392 33.87C14.7192 33.87 13.9692 33.12 13.9692 32.2C13.9692 31.28 14.7192 30.53 15.6392 30.53C16.5592 30.53 17.3092 31.28 17.3092 32.2C17.3192 33.12 16.5692 33.87 15.6392 33.87Z" fill="url(#icon-5-3_linear)"/>
<path d="M28.2193 39.49C25.5993 39.49 23.4893 41.62 23.4893 44.22C23.4893 46.82 25.6193 48.95 28.2193 48.95C30.8193 48.95 32.9492 46.82 32.9492 44.22C32.9492 41.62 30.8293 39.49 28.2193 39.49ZM28.2193 45.91C27.2993 45.91 26.5493 45.16 26.5493 44.24C26.5493 43.32 27.2993 42.57 28.2193 42.57C29.1393 42.57 29.8893 43.32 29.8893 44.24C29.8993 45.16 29.1493 45.91 28.2193 45.91Z" fill="url(#icon-5-4_linear)"/>
<path d="M40.7891 39.49C38.1691 39.49 36.0591 41.62 36.0591 44.22C36.0591 46.82 38.1891 48.95 40.7891 48.95C43.3891 48.95 45.5191 46.82 45.5191 44.22C45.5291 41.62 43.4091 39.49 40.7891 39.49ZM40.7891 45.91C39.8691 45.91 39.1191 45.16 39.1191 44.24C39.1191 43.32 39.8691 42.57 40.7891 42.57C41.7091 42.57 42.4591 43.32 42.4591 44.24C42.4591 45.16 41.7091 45.91 40.7891 45.91Z" fill="url(#icon-5-5_linear)"/>
<path d="M15.6392 39.49C13.0192 39.49 10.9092 41.62 10.9092 44.22C10.9092 46.82 13.0392 48.95 15.6392 48.95C18.2392 48.95 20.3692 46.82 20.3692 44.22C20.3692 41.62 18.2492 39.49 15.6392 39.49ZM15.6392 45.91C14.7192 45.91 13.9692 45.16 13.9692 44.24C13.9692 43.32 14.7192 42.57 15.6392 42.57C16.5592 42.57 17.3092 43.32 17.3092 44.24C17.3192 45.16 16.5692 45.91 15.6392 45.91Z" fill="url(#icon-5-6_linear)"/>
<path d="M28.2193 51.54C25.5993 51.54 23.4893 53.67 23.4893 56.27C23.4893 58.87 25.6193 61 28.2193 61C30.8193 61 32.9492 58.87 32.9492 56.27C32.9492 53.67 30.8293 51.54 28.2193 51.54ZM28.2193 57.94C27.2993 57.94 26.5493 57.19 26.5493 56.27C26.5493 55.35 27.2993 54.6 28.2193 54.6C29.1393 54.6 29.8893 55.35 29.8893 56.27C29.8893 57.19 29.1493 57.94 28.2193 57.94Z" fill="url(#icon-5-7_linear)"/>
<path d="M40.7891 51.54C38.1691 51.54 36.0591 53.67 36.0591 56.27C36.0591 58.87 38.1891 61 40.7891 61C43.3891 61 45.5191 58.87 45.5191 56.27C45.5291 53.67 43.4091 51.54 40.7891 51.54ZM40.7891 57.94C39.8691 57.94 39.1191 57.19 39.1191 56.27C39.1191 55.35 39.8691 54.6 40.7891 54.6C41.7091 54.6 42.4591 55.35 42.4591 56.27C42.4591 57.19 41.7091 57.94 40.7891 57.94Z" fill="url(#icon-5-8_linear)"/>
<path d="M15.6392 51.54C13.0192 51.54 10.9092 53.67 10.9092 56.27C10.9092 58.87 13.0392 61 15.6392 61C18.2392 61 20.3692 58.87 20.3692 56.27C20.3692 53.67 18.2492 51.54 15.6392 51.54ZM15.6392 57.94C14.7192 57.94 13.9692 57.19 13.9692 56.27C13.9692 55.35 14.7192 54.6 15.6392 54.6C16.5592 54.6 17.3092 55.35 17.3092 56.27C17.3092 57.19 16.5692 57.94 15.6392 57.94Z" fill="url(#icon-5-9_linear)"/>
<defs>
<linearGradient id="icon-5-0_linear" x1="28.0001" y1="0.640015" x2="28.0001" y2="24.33" gradientUnits="userSpaceOnUse">
<stop stop-color="#6C95FF" stop-opacity="0.8"/>
<stop offset="1" stop-color="#7870DC"/>
</linearGradient>
<linearGradient id="icon-5-1_linear" x1="28.2193" y1="27.46" x2="28.2193" y2="36.92" gradientUnits="userSpaceOnUse">
<stop stop-color="#6C95FF" stop-opacity="0.8"/>
<stop offset="1" stop-color="#7870DC"/>
</linearGradient>
<linearGradient id="icon-5-2_linear" x1="40.7891" y1="27.46" x2="40.7891" y2="36.92" gradientUnits="userSpaceOnUse">
<stop stop-color="#6C95FF" stop-opacity="0.8"/>
<stop offset="1" stop-color="#7870DC"/>
</linearGradient>
<linearGradient id="icon-5-3_linear" x1="15.6392" y1="27.46" x2="15.6392" y2="36.92" gradientUnits="userSpaceOnUse">
<stop stop-color="#6C95FF" stop-opacity="0.8"/>
<stop offset="1" stop-color="#7870DC"/>
</linearGradient>
<linearGradient id="icon-5-4_linear" x1="28.2193" y1="39.49" x2="28.2193" y2="48.95" gradientUnits="userSpaceOnUse">
<stop stop-color="#6C95FF" stop-opacity="0.8"/>
<stop offset="1" stop-color="#7870DC"/>
</linearGradient>
<linearGradient id="icon-5-5_linear" x1="40.7891" y1="39.49" x2="40.7891" y2="48.95" gradientUnits="userSpaceOnUse">
<stop stop-color="#6C95FF" stop-opacity="0.8"/>
<stop offset="1" stop-color="#7870DC"/>
</linearGradient>
<linearGradient id="icon-5-6_linear" x1="15.6392" y1="39.49" x2="15.6392" y2="48.95" gradientUnits="userSpaceOnUse">
<stop stop-color="#6C95FF" stop-opacity="0.8"/>
<stop offset="1" stop-color="#7870DC"/>
</linearGradient>
<linearGradient id="icon-5-7_linear" x1="28.2193" y1="51.54" x2="28.2193" y2="61" gradientUnits="userSpaceOnUse">
<stop stop-color="#6C95FF" stop-opacity="0.8"/>
<stop offset="1" stop-color="#7870DC"/>
</linearGradient>
<linearGradient id="icon-5-8_linear" x1="40.7891" y1="51.54" x2="40.7891" y2="61" gradientUnits="userSpaceOnUse">
<stop stop-color="#6C95FF" stop-opacity="0.8"/>
<stop offset="1" stop-color="#7870DC"/>
</linearGradient>
<linearGradient id="icon-5-9_linear" x1="15.6392" y1="51.54" x2="15.6392" y2="61" gradientUnits="userSpaceOnUse">
<stop stop-color="#6C95FF" stop-opacity="0.8"/>
<stop offset="1" stop-color="#7870DC"/>
</linearGradient>
</defs>
</svg>