<svg width="52" height="62" viewBox="0 0 52 62" fill="none" xmlns="http://www.w3.org/2000/svg">
<path d="M16.1352 25.42C16.1352 24.58 15.4452 23.89 14.6052 23.89H2.33518C1.49518 23.88 0.805176 24.57 0.805176 25.42C0.805176 26.26 1.49518 26.95 2.33518 26.95H14.6052C15.4552 26.95 16.1352 26.26 16.1352 25.42Z" fill="url(#icon-4-0_linear)"/>
<path d="M49.6652 23.88H37.3952C36.5552 23.88 35.8652 24.57 35.8652 25.41C35.8652 26.25 36.5552 26.94 37.3952 26.94H49.6652C50.5052 26.94 51.1952 26.25 51.1952 25.41C51.1952 24.57 50.5252 23.88 49.6652 23.88Z" fill="url(#icon-4-1_linear)"/>
<path d="M26.0052 15.55C26.8452 15.55 27.5352 14.86 27.5352 14.02V1.74997C27.5352 0.909971 26.8452 0.219971 26.0052 0.219971C25.1652 0.219971 24.4752 0.909971 24.4752 1.74997V14.02C24.4652 14.87 25.1552 15.55 26.0052 15.55Z" fill="url(#icon-4-2_linear)"/>
<path d="M34.0551 18.9C34.4551 18.9 34.8351 18.75 35.1351 18.45L43.8251 9.76001C44.4251 9.16001 44.4251 8.19001 43.8251 7.59001C43.2251 6.99001 42.2551 6.99001 41.6551 7.59001L32.9651 16.28C32.3651 16.88 32.3651 17.85 32.9651 18.45C33.2751 18.74 33.6651 18.9 34.0551 18.9Z" fill="url(#icon-4-3_linear)"/>
<path d="M16.8651 18.45C17.1551 18.74 17.5551 18.9 17.9451 18.9C18.3451 18.9 18.7251 18.75 19.0251 18.45C19.6251 17.85 19.6251 16.88 19.0251 16.28L10.3451 7.59001C9.7451 6.99001 8.7751 6.99001 8.1751 7.59001C7.5751 8.19001 7.5751 9.16001 8.1751 9.76001L16.8651 18.45Z" fill="url(#icon-4-4_linear)"/>
<path d="M44.395 35.07C43.235 34.08 41.765 33.53 40.275 33.53H31.515V27.34C31.515 24.38 30.635 22.22 28.885 20.94C26.125 18.92 22.395 20.06 22.225 20.11C21.585 20.31 21.155 20.9 21.155 21.56V29.02C21.155 31.29 20.075 33.22 17.915 34.76C16.285 35.93 14.615 36.47 14.395 36.53L14.245 36.57C13.675 35.92 12.825 35.51 11.885 35.51H6.06504C4.32504 35.51 2.91504 36.93 2.91504 38.66V57.74C2.91504 59.47 4.33504 60.89 6.06504 60.89H11.905C12.665 60.89 13.385 60.61 13.925 60.15C15.095 61.3 16.695 62 18.415 62H36.695C38.535 62 40.155 61.55 41.385 60.72C42.965 59.65 43.945 57.95 44.225 55.78L46.585 41.11C46.965 38.86 46.115 36.54 44.395 35.07ZM11.995 57.76C11.995 57.81 11.955 57.85 11.905 57.85H6.06504C6.01504 57.85 5.97504 57.81 5.97504 57.76V38.67C5.97504 38.62 6.01504 38.58 6.06504 38.58H11.905C11.955 38.58 11.995 38.62 11.995 38.67V57.76ZM43.565 40.66L41.205 55.36C41.205 55.37 41.205 55.4 41.195 55.42C41.095 56.3 40.765 58.97 36.695 58.97H18.405C16.775 58.97 15.345 57.75 15.085 56.13C15.075 56.07 15.055 56 15.045 55.95V39.54L15.135 39.51C15.155 39.51 15.175 39.5 15.195 39.5C15.285 39.47 17.455 38.86 19.605 37.32C22.605 35.19 24.195 32.32 24.195 29.03V22.83C25.035 22.74 26.195 22.78 27.055 23.4C27.975 24.08 28.435 25.4 28.435 27.33V35.05C28.435 35.89 29.125 36.58 29.965 36.58H40.255C41.025 36.58 41.775 36.87 42.385 37.38C43.325 38.17 43.755 39.42 43.565 40.66Z" fill="url(#icon-4-5_linear)"/>
<defs>
<linearGradient id="icon-4-0_linear" x1="8.47018" y1="23.8899" x2="8.47018" y2="26.95" gradientUnits="userSpaceOnUse">
<stop stop-color="#6C95FF" stop-opacity="0.8"/>
<stop offset="1" stop-color="#7870DC"/>
</linearGradient>
<linearGradient id="icon-4-1_linear" x1="43.5302" y1="23.88" x2="43.5302" y2="26.94" gradientUnits="userSpaceOnUse">
<stop stop-color="#6C95FF" stop-opacity="0.8"/>
<stop offset="1" stop-color="#7870DC"/>
</linearGradient>
<linearGradient id="icon-4-2_linear" x1="26.0052" y1="0.219971" x2="26.0052" y2="15.55" gradientUnits="userSpaceOnUse">
<stop stop-color="#6C95FF" stop-opacity="0.8"/>
<stop offset="1" stop-color="#7870DC"/>
</linearGradient>
<linearGradient id="icon-4-3_linear" x1="38.3951" y1="7.14001" x2="38.3951" y2="18.9" gradientUnits="userSpaceOnUse">
<stop stop-color="#6C95FF" stop-opacity="0.8"/>
<stop offset="1" stop-color="#7870DC"/>
</linearGradient>
<linearGradient id="icon-4-4_linear" x1="13.6001" y1="7.14001" x2="13.6001" y2="18.9" gradientUnits="userSpaceOnUse">
<stop stop-color="#6C95FF" stop-opacity="0.8"/>
<stop offset="1" stop-color="#7870DC"/>
</linearGradient>
<linearGradient id="icon-4-5_linear" x1="24.7948" y1="19.7446" x2="24.7948" y2="62" gradientUnits="userSpaceOnUse">
<stop stop-color="#6C95FF" stop-opacity="0.8"/>
<stop offset="1" stop-color="#7870DC"/>
</linearGradient>
</defs>
</svg>