<svg width="60" height="54" viewBox="0 0 60 54" fill="none" xmlns="http://www.w3.org/2000/svg">
<path d="M22.6403 11.92L29.0803 16.68C29.3503 16.88 29.6703 16.97 29.9903 16.97C30.3103 16.97 30.6303 16.87 30.9003 16.68L37.3403 11.92C37.7403 11.63 37.9603 11.18 37.9603 10.68V2.44003C37.9603 1.60003 37.2703 0.910034 36.4303 0.910034H23.5603C22.7203 0.910034 22.0303 1.60003 22.0303 2.44003V10.68C22.0303 11.17 22.2603 11.62 22.6403 11.92ZM25.0903 3.97003H34.9303V9.90003L30.0103 13.54L25.1003 9.92003V3.97003H25.0903Z" fill="url(#icon-2-0_linear)"/>
<path d="M53.31 7.41003H41.89C41.05 7.41003 40.36 8.10003 40.36 8.94003C40.36 9.78003 41.05 10.47 41.89 10.47H53.31C55.16 10.47 56.65 11.98 56.65 13.81V47.59C56.65 49.44 55.14 50.93 53.31 50.93H6.69003C4.84003 50.93 3.35004 49.42 3.35004 47.59V13.82C3.35004 11.97 4.86003 10.48 6.69003 10.48H18.09C18.93 10.48 19.62 9.79003 19.62 8.95003C19.62 8.11003 18.93 7.42003 18.09 7.42003H6.69003C3.16003 7.42003 0.290039 10.29 0.290039 13.82V47.6C0.290039 51.13 3.16003 54 6.69003 54H53.31C56.84 54 59.71 51.13 59.71 47.6V13.82C59.71 10.29 56.84 7.41003 53.31 7.41003Z" fill="url(#icon-2-1_linear)"/>
<path d="M11.3799 23.45C11.3799 26.4 13.7799 28.8 16.7299 28.8C19.6799 28.8 22.0799 26.4 22.0799 23.45C22.0799 20.5 19.6799 18.1 16.7299 18.1C13.7799 18.11 11.3799 20.5 11.3799 23.45ZM19.0099 23.45C19.0099 24.71 17.9899 25.73 16.7299 25.73C15.4699 25.73 14.4499 24.71 14.4499 23.45C14.4499 22.19 15.4699 21.17 16.7299 21.17C17.9899 21.17 19.0099 22.19 19.0099 23.45Z" fill="url(#icon-2-2_linear)"/>
<path d="M16.72 29.89C13.7 29.89 11.25 31.29 9.63997 33.95C8.47997 35.86 7.74998 38.45 7.45998 41.64C7.37998 42.48 8.00999 43.22 8.84999 43.3C9.68999 43.38 10.43 42.75 10.51 41.91C11.06 35.96 13.15 32.95 16.72 32.95C20.29 32.95 22.38 35.96 22.93 41.91C23.01 42.7 23.67 43.3 24.45 43.3C24.5 43.3 24.54 43.3 24.59 43.29C25.43 43.21 26.06 42.47 25.98 41.63C25.69 38.44 24.95 35.86 23.8 33.94C22.2 31.3 19.75 29.89 16.72 29.89Z" fill="url(#icon-2-3_linear)"/>
<path d="M48.9301 20.9601H31.8401C31.0001 20.9601 30.3101 21.6501 30.3101 22.4901C30.3101 23.3301 31.0001 24.0201 31.8401 24.0201H48.9301C49.7701 24.0201 50.4601 23.3301 50.4601 22.4901C50.4701 21.6501 49.7801 20.9601 48.9301 20.9601Z" fill="url(#icon-2-4_linear)"/>
<path d="M50.4698 33.45C50.4698 32.61 49.7798 31.92 48.9398 31.92H31.8498C31.0098 31.92 30.3198 32.61 30.3198 33.45C30.3198 34.29 31.0098 34.98 31.8498 34.98H48.9398C49.7798 34.98 50.4698 34.31 50.4698 33.45Z" fill="url(#icon-2-5_linear)"/>
<path d="M31.8401 37.38C31.0001 37.38 30.3101 38.07 30.3101 38.91C30.3101 39.75 31.0001 40.44 31.8401 40.44H40.39C41.23 40.44 41.92 39.75 41.92 38.91C41.92 38.07 41.23 37.38 40.39 37.38H31.8401Z" fill="url(#icon-2-6_linear)"/>
<path d="M48.9301 26.42H31.8401C31.0001 26.42 30.3101 27.11 30.3101 27.95C30.3101 28.79 31.0001 29.48 31.8401 29.48H48.9301C49.7701 29.48 50.4601 28.79 50.4601 27.95C50.4701 27.11 49.7801 26.42 48.9301 26.42Z" fill="url(#icon-2-7_linear)"/>
<defs>
<linearGradient id="icon-2-0_linear" x1="29.9953" y1="0.910034" x2="29.9953" y2="16.97" gradientUnits="userSpaceOnUse">
<stop stop-color="#6C95FF" stop-opacity="0.8"/>
<stop offset="1" stop-color="#7870DC"/>
</linearGradient>
<linearGradient id="icon-2-1_linear" x1="30" y1="7.41003" x2="30" y2="54" gradientUnits="userSpaceOnUse">
<stop stop-color="#6C95FF" stop-opacity="0.8"/>
<stop offset="1" stop-color="#7870DC"/>
</linearGradient>
<linearGradient id="icon-2-2_linear" x1="16.7299" y1="18.1" x2="16.7299" y2="28.8" gradientUnits="userSpaceOnUse">
<stop stop-color="#6C95FF" stop-opacity="0.8"/>
<stop offset="1" stop-color="#7870DC"/>
</linearGradient>
<linearGradient id="icon-2-3_linear" x1="16.72" y1="29.89" x2="16.72" y2="43.3069" gradientUnits="userSpaceOnUse">
<stop stop-color="#6C95FF" stop-opacity="0.8"/>
<stop offset="1" stop-color="#7870DC"/>
</linearGradient>
<linearGradient id="icon-2-4_linear" x1="40.3851" y1="20.9601" x2="40.3851" y2="24.0201" gradientUnits="userSpaceOnUse">
<stop stop-color="#6C95FF" stop-opacity="0.8"/>
<stop offset="1" stop-color="#7870DC"/>
</linearGradient>
<linearGradient id="icon-2-5_linear" x1="40.3948" y1="31.92" x2="40.3948" y2="34.98" gradientUnits="userSpaceOnUse">
<stop stop-color="#6C95FF" stop-opacity="0.8"/>
<stop offset="1" stop-color="#7870DC"/>
</linearGradient>
<linearGradient id="icon-2-6_linear" x1="36.1151" y1="37.38" x2="36.1151" y2="40.44" gradientUnits="userSpaceOnUse">
<stop stop-color="#6C95FF" stop-opacity="0.8"/>
<stop offset="1" stop-color="#7870DC"/>
</linearGradient>
<linearGradient id="icon-2-7_linear" x1="40.3851" y1="26.42" x2="40.3851" y2="29.48" gradientUnits="userSpaceOnUse">
<stop stop-color="#6C95FF" stop-opacity="0.8"/>
<stop offset="1" stop-color="#7870DC"/>
</linearGradient>
</defs>
</svg>