<svg width="88" height="15" viewBox="0 0 88 15" fill="none" xmlns="http://www.w3.org/2000/svg">
<path d="M81.2813 10.4796C83.9641 10.6337 84.638 10.6517 84.7631 11.0907L86.9967 8.84414C85.8276 8.24591 83.9616 8.12267 81.631 7.98146C78.5602 7.77093 78.0726 7.73755 78.0726 7.19581C78.0726 6.69001 78.7848 6.60272 81.2481 6.60272C83.5378 6.60272 84.4415 6.69001 84.4415 7.40634H87.9999C87.9999 4.49224 85.2762 3.98644 81.4243 3.98644C77.6591 3.98644 74.5015 4.49224 74.5015 7.31905C74.4964 9.88654 76.6483 10.2537 81.2813 10.4796Z" fill="white"/>
<path d="M14.1953 6.88514C14.1953 4.4871 12.7275 2.76688 10.4914 2.39202L7.34142 5.55774H8.67645C9.38864 5.55774 10.3765 5.55774 10.3765 6.88514C10.3765 8.22794 9.38609 8.22794 8.67645 8.22794H4.68666L0 12.9419V14.5286H3.81876V11.4733H7.68858L9.4933 14.5286H14.0038L11.8188 10.9675C13.2916 10.2537 14.1953 8.76968 14.1953 6.88514Z" fill="white"/>
<path d="M21.8637 3.98644C17.542 3.98644 14.7852 5.5218 14.7852 9.3448C14.7852 13.1678 17.5446 14.7032 21.8637 14.7032C26.2006 14.7032 28.9421 13.1678 28.9421 9.3448C28.9447 5.52437 26.2032 3.98644 21.8637 3.98644ZM21.8637 11.7197C19.5739 11.7197 18.3589 11.178 18.3589 9.3448C18.3589 7.51161 19.5739 6.96987 21.8637 6.96987C24.1712 6.96987 25.3863 7.51161 25.3863 9.3448C25.3863 11.178 24.1738 11.7197 21.8637 11.7197Z" fill="white"/>
<path d="M38.818 3.98644C36.4926 3.98644 34.6878 4.73615 33.3349 5.75031V4.16103H29.7612V14.5286H33.3349V8.82103C34.2028 7.89674 35.9208 7.09311 37.534 7.09311C39.7038 7.09311 40.3981 8.05335 40.3981 10.0432V14.5286H43.9565L43.9744 8.62847C43.954 4.84142 41.3528 3.98644 38.818 3.98644Z" fill="white"/>
<path d="M81.1771 14.7006L83.8701 11.9919C83.3825 12.0612 82.6525 12.0869 81.5625 12.0869C78.6474 12.0869 77.7973 11.7557 77.7973 10.9187H74.2236C74.2185 14.0433 77.463 14.6492 81.1771 14.7006Z" fill="white"/>
<path d="M55.2698 5.66301C54.1773 4.52818 52.4772 3.98644 50.5678 3.98644C47.5838 3.98644 44.6865 5.25992 44.6865 9.3448C44.6865 13.4117 47.5838 14.7032 50.5678 14.7032C52.4772 14.7032 54.1773 14.1614 55.2698 13.0112V14.5286H58.8435V0.566536H55.2698V5.66301ZM51.765 11.7197C49.5085 11.7197 48.2424 11.1266 48.2424 9.3448C48.2424 7.56296 49.5085 6.96987 51.765 6.96987C54.0037 6.96987 55.2698 7.56296 55.2698 9.3448C55.2698 11.1266 54.0037 11.7197 51.765 11.7197Z" fill="white"/>
<path d="M66.7235 3.98644C62.4019 3.98644 59.645 5.5218 59.645 9.3448C59.645 13.1678 62.4044 14.7032 66.7235 14.7032C71.063 14.7032 73.8046 13.1678 73.8046 9.3448C73.802 5.52437 71.0605 3.98644 66.7235 3.98644ZM66.7235 11.7197C64.4338 11.7197 63.2187 11.178 63.2187 9.3448C63.2187 7.51161 64.4338 6.96987 66.7235 6.96987C69.0311 6.96987 70.2462 7.51161 70.2462 9.3448C70.2462 11.178 69.0311 11.7197 66.7235 11.7197Z" fill="white"/>
</svg>